<?xml version="1.0" standalone="no"?>
<!DOCTYPE svg PUBLIC "-//W3C//DTD SVG 1.1//EN" "http://www.w3.org/Graphics/SVG/1.1/DTD/svg11.dtd">
<svg xmlns="http://www.w3.org/2000/svg" width="180" height="53" viewBox="0 0 180 53" fill="none">
<g clip-path="url(#clip0_41_58)">
<path d="M180 0.737954H165.363V6.52095C166.778 6.64395 168.069 6.82795 169.237 6.88995L164.379 25.462H164.318L156.692 0.739954H150.419L143.101 25.462H142.978L138.305 6.82095C139.49 6.67992 140.68 6.57753 141.872 6.51395V0.732954H127.235V6.52095C128.649 6.64395 129.818 6.82795 130.925 6.88995L138.125 33.027H147.41L153.498 13.594L159.275 33.021H168.93L176.13 6.88395C177.298 6.82195 178.589 6.63795 180.004 6.51495L180 0.737954ZM51.24 0.738954H39.248V6.51995C40.539 6.64295 41.892 6.88895 43.122 6.95095V26.876C41.83 26.938 40.478 27.122 39.002 27.307V33.026H55.852V27.309C53.884 27.124 52.531 26.94 51.24 26.878V11.562C52.079 10.492 53.1536 9.63017 54.3803 9.04356C55.6069 8.45696 56.9524 8.16142 58.312 8.17995L63.912 7.81095V0.310954H60.895C56.595 0.310954 54.069 3.01695 51.24 6.64495V0.738954ZM20.835 6.33395L23.15 8.01895C23.15 8.01895 25.263 7.93295 27.907 7.87095L33.507 7.50195V0.00195423H30.49C26.185 -4.57672e-05 23.66 2.70595 20.835 6.33395Z" fill="#58FF00"/>
<path fill-rule="evenodd" clip-rule="evenodd" d="M16.644 0.236975C12.2304 0.239095 7.99815 1.99334 4.87726 5.11423C1.75636 8.23513 0.00211989 12.4674 0 16.881C0.00211989 21.2946 1.75636 25.5268 4.87726 28.6477C7.99815 31.7686 12.2304 33.5229 16.644 33.525C21.0578 33.5231 25.2903 31.769 28.4114 28.6481C31.5325 25.5271 33.2869 21.2948 33.289 16.881C33.2869 12.4672 31.5325 8.2348 28.4114 5.11388C25.2903 1.99295 21.0578 0.23883 16.644 0.236975V0.236975ZM16.644 7.02698C19.2574 7.02777 21.7635 8.06615 23.6117 9.9139C25.4598 11.7617 26.4987 14.2676 26.5 16.881C26.4987 19.494 25.4601 21.9996 23.6124 23.8473C21.7647 25.695 19.259 26.7337 16.646 26.735C14.0326 26.7342 11.5265 25.6958 9.67834 23.848C7.83021 22.0003 6.79133 19.4944 6.79 16.881C6.79132 14.2679 7.82994 11.7623 9.67763 9.91461C11.5253 8.06691 14.031 7.0283 16.644 7.02698V7.02698ZM100.934 2.32898C103.405 0.952947 106.187 0.232405 109.015 0.235975C113.429 0.238095 117.661 1.99247 120.782 5.11358C123.903 8.2347 125.657 12.4672 125.659 16.881C125.657 21.2946 123.903 25.5268 120.782 28.6477C117.661 31.7686 113.429 33.5229 109.015 33.525C106.207 33.5284 103.443 32.8178 100.985 31.46L101.12 31.216C102.529 29.545 103.685 27.6756 104.549 25.668C105.931 26.3717 107.46 26.7374 109.011 26.735C111.624 26.7337 114.13 25.695 115.977 23.8473C117.825 21.9996 118.864 19.494 118.865 16.881C118.864 14.2679 117.825 11.7623 115.977 9.91461C114.13 8.06691 111.624 7.0283 109.011 7.02698C107.461 7.02335 105.931 7.38766 104.549 8.08998C103.646 5.99593 102.427 4.05296 100.934 2.32898V2.32898ZM67.23 16.881C67.2321 21.2946 68.9864 25.5268 72.1073 28.6477C75.2282 31.7686 79.4604 33.5229 83.874 33.525C88.2874 33.5226 92.5194 31.7682 95.6401 28.6474C98.7608 25.5265 100.515 21.2944 100.517 16.881C100.515 12.4675 98.7608 8.23545 95.6401 5.11458C92.5194 1.99372 88.2874 0.23936 83.874 0.236975C79.4604 0.239095 75.2282 1.99334 72.1073 5.11423C68.9864 8.23513 67.2321 12.4674 67.23 16.881V16.881ZM74.02 16.881C74.0213 14.2679 75.0599 11.7623 76.9076 9.91461C78.7553 8.06691 81.261 7.0283 83.874 7.02698C86.487 7.0283 88.9927 8.06691 90.8404 9.91461C92.6881 11.7623 93.7267 14.2679 93.728 16.881C93.7267 19.494 92.6881 21.9996 90.8404 23.8473C88.9927 25.695 86.487 26.7337 83.874 26.735C81.2604 26.7344 78.754 25.6962 76.9057 23.8484C75.0573 22.0006 74.0183 19.4945 74.017 16.881H74.02ZM26.5 36.107C26.4989 38.7202 25.4604 41.2261 23.6127 43.074C21.765 44.9219 19.2592 45.9607 16.646 45.962C14.0324 45.9612 11.5261 44.9227 9.67799 43.0747C7.82983 41.2267 6.79106 38.7205 6.79 36.107H0C0.00185491 40.5208 1.75598 44.7533 4.8769 47.8744C7.99783 50.9955 12.2302 52.7499 16.644 52.752C21.058 52.7501 25.2906 50.9959 28.4117 47.8747C31.5329 44.7536 33.2871 40.5209 33.289 36.107H26.5Z" fill="#58FF00"/>
</g>
<defs>
<clipPath id="clip0_41_58">
<rect width="180" height="52.751" fill="white"/>
</clipPath>
</defs>
</svg>