<svg version="1.1" id="Layer_1"
  xmlns="http://www.w3.org/2000/svg"
  xmlns:xlink="http://www.w3.org/1999/xlink" x="0px" y="0px" viewBox="0 0 1882.02 1003.19" style="enable-background:new 0 0 1882.02 1003.19;" xml:space="preserve">
  <style type="text/css">
	.st0{clip-path:url(#SVGID_00000026127271208793608170000004619464454239352467_);fill:#ffffff;}
	.st1{clip-path:url(#SVGID_00000026127271208793608170000004619464454239352467_);fill:#00CFDA;}
  </style>
  <g>
    <defs>
<rect id="SVGID_1_" y="0" width="1882.02" height="1003.19"/>

</defs>
<clipPath id="SVGID_00000116202746906317711520000007189711632881399452_">
  <use xlink:href="#SVGID_1_" style="overflow:visible;"/>
</clipPath>
<path style="clip-path:url(#SVGID_00000116202746906317711520000007189711632881399452_);fill:#ffffff;" d="M419.14,379.17
		c27.01,4.02,77.74-6.27,73.72-43.28c-0.44-4.12-6.93-5.24-8.28-1.08c-9.3,28.66-30.89,36.58-60.13,34.76
		c-12.59-0.78-25.45-4.36-36.25-10.93c-11.46-6.97-10.81-15.11-14.09-26.31c-0.27-0.91-1.72-1.27-2.39-0.62
		C347.44,355.64,404.78,377.04,419.14,379.17"/>
<path style="clip-path:url(#SVGID_00000116202746906317711520000007189711632881399452_);fill:#ffffff;" d="M421.4,332.1
		c0.92,3.9,6.16,3.12,6.09-0.83c-0.09-5.59-0.15-11.19-0.16-16.8c-0.01-3.56,1.3-11.88-4.8-11.06c-5.61,0.76-3.33,8.49-3.04,12.12
		C419.95,321.05,420.13,326.72,421.4,332.1"/>
<path style="clip-path:url(#SVGID_00000116202746906317711520000007189711632881399452_);fill:#ffffff;" d="M438.52,327.86
		c0.69,2.66,5.3,3.31,5.34,0c0.06-4.93-0.15-9.85,0.07-14.78c0.19-4.28,2.43-9.97,0.85-13.98c-1.07-2.73-4.61-2.82-6.35-0.79
		c-2.7,3.17-1.53,9.32-1.41,13.21C437.19,316.94,437.14,322.57,438.52,327.86"/>
<path style="clip-path:url(#SVGID_00000116202746906317711520000007189711632881399452_);fill:#ffffff;" d="M289.16,551.81
		c0-3.53-2.87-6.4-6.4-6.4h-20.32c-3.53,0-6.4,2.87-6.4,6.4v40.34c-5.7-4.28-12.88-6.86-20.69-6.86h-35.37
		c-18.46,0-33.49,14.3-33.49,31.88v143.18c0,17.58,15.02,31.88,33.49,31.88h31.23v0.28c0,5.45,4.9,9.87,10.91,9.87
		c6.02,0,10.91-4.43,10.91-9.87v-5.14c9.47-5.64,15.8-15.63,15.8-27.02V621.69v-4.52v-58.96h13.92
		C286.29,558.21,289.16,555.34,289.16,551.81 M256.04,621.69v138.66c0,3.61-1.11,6.97-3,9.85v-4.6c0-5.53-4.79-9.87-10.91-9.87
		c-6.12,0-10.91,4.34-10.91,9.87v13.83h-31.23c-11.41,0-20.69-8.56-20.69-19.08V617.17c0-10.52,9.28-19.08,20.69-19.08h35.37
		c11.41,0,20.69,8.56,20.69,19.08V621.69z"/>
<path style="clip-path:url(#SVGID_00000116202746906317711520000007189711632881399452_);fill:#ffffff;" d="M1023.96,533.59
		l-0.16,4.8h2.74l5.96-14.4v-2.4l-2.58-2.4l2.9-16.8c-7.51-12.8-18.25-19.2-32.19-19.2l-10.95,2.4l-29.3-4.8l-19.32,2.4
		c0.22-4.8-1.5-7.2-5.15-7.2c-3.65,0-5.58,2.4-5.8,7.2h-2.74c0.21-8-1.5-12-5.15-12h-13.69l-2.74,2.4v-2.4l-2.58-2.4h-2.74l-2.9,2.4
		l2.57,9.6l2.74-2.4l5.31,4.8l-0.16,2.4c-0.11,2.64-12.13,8.24-36.05,16.8l-0.48,9.6l2.25,14.4c10.73,5.84,15.88,13.83,15.45,24
		h2.73l0.32-9.6l5.32,4.8l-0.32,12h-5.47l2.41,7.2l-0.48,12H891l0.33-9.6h-5.47l-2.9,2.4l2.74,2.4l-9.98,45.6l2.74,2.4l-6.76,33.6
		l7.89,9.6l-3.54,19.2l21.57,9.6h2.74l2.74-2.4c6.11-16,11-24,14.64-24l-2.25-12l1.45-40.8l44.43-16.8
		c25.75-11.48,45.71-32.28,59.88-62.4H1023.96z M890.36,591.19h-5.47l0.32-4.8l2.74-2.4l-2.58-2.4l0.16-2.4H891L890.36,591.19z
		 M930.92,533.59c0.21-7.44,18.62-12.24,55.21-14.4h8.21c-17.71,20.14-38.31,34.54-61.81,43.2h-5.47L930.92,533.59z M929.47,574.39
		H924v-2.4l2.74-2.4c40.89-18.16,64.22-31.76,70.02-40.8h2.74C979.75,551.94,956.41,567.14,929.47,574.39"/>
<path style="clip-path:url(#SVGID_00000116202746906317711520000007189711632881399452_);fill:#ffffff;" d="M1336.69,561.82v-9.6
		c-3.65,0-5.47,4-5.47,12h-2.74l-8.21-52.8h2.73l2.74,2.4h5.47l-10.94-14.4v-2.4l2.73-2.4c-18.67-11.2-38.74-16.8-60.2-16.8
		c-34.66,3.86-51.99,9.46-51.99,16.8h2.73l19.16-9.6c-42.6,35.77-67.23,65.37-73.89,88.8h-2.74v-2.4
		c8.48-19.39,19.43-36.99,32.84-52.8v-2.4c-29.19,33.13-43.79,56.33-43.79,69.6v4.8l2.74,16.8l-1.54,1.35
		c-41.18,5.55-66.97,10.46-77.3,14.74l13.69-134.41l-2.74-2.4l-8.21,4.8h-5.47c0-9.6-1.83-14.4-5.47-14.4h-5.47l-2.74,2.4
		c0,4.8-1.83,7.2-5.47,7.2l-10.94,127.21h-2.74v-12l2.74-9.6l-2.74-2.4l5.47-31.2h-5.47l2.74-16.8v-9.6h-2.74l-10.95,108l8.21,9.6
		v7.2c-7.3,0.76-10.95,3.16-10.95,7.2v2.4h2.74l10.95,12h8.21l57.46-19.2l69.09-14.69c14.57,16.65,37.87,25,69.95,25h2.74l13.68-2.4
		c25.44-13.27,44.59-27.67,57.46-43.2h-2.74C1327.57,591.66,1336.69,570.86,1336.69,561.82 M1312.06,583.42l2.74-7.2h2.74v2.4
		l-2.74,9.6h-2.74V583.42z M1099.13,625.92v-2.4l-30.1,7.2c0-4.74,25.88-11.05,77.6-18.92l3.57,4.69L1099.13,625.92z
		 M1151.13,618.72v-1.02l0.46,0.61L1151.13,618.72z M1156.08,605.03h-2.73v-19.2h2.73V605.03z M1180.71,566.63l8.21-14.4h2.74
		l-8.21,14.4H1180.71z M1208.08,655.43l-13.68-7.2v-2.4l13.68,7.2V655.43z M1213.55,636.23h-2.73c-5.41-3.17-9.91-6.51-13.54-10.02
		c3.89-1.58,5.84-3.28,5.84-5.09v-2.4l-13.04-1.63c-2.58-4.57-3.89-9.39-3.89-14.46c14.05-44.8,28.65-67.2,43.78-67.2l19.16-14.4
		l-2.74-2.4v-2.4l2.74,2.4l10.95-4.8v2.4h2.73l2.74-2.4h2.73c18.24,1.97,27.37,5.18,27.37,9.6v19.2c0,8.09-4.56,20.89-13.68,38.4
		C1256.31,617.83,1233.51,636.23,1213.55,636.23 M1273.75,605.03h-2.74l10.94-12h2.74L1273.75,605.03z M1292.91,590.63h-8.21
		l10.95-24h2.73l2.74,7.2L1292.91,590.63z"/>

<rect x="1328.48" y="525.82" style="clip-path:url(#SVGID_00000116202746906317711520000007189711632881399452_);fill:#ffffff;" width="5.48" height="12"/>
<path style="clip-path:url(#SVGID_00000116202746906317711520000007189711632881399452_);fill:#ffffff;" d="M1345.83,505.51
		l0.07,2.4c-7.29,0.22-10.89,1.93-10.8,5.12l2.74-0.08l16.27-5.29l5.47-0.16l0.07,2.4c-10.9,1.93-16.29,4.49-16.2,7.69l0.07,2.4
		l16.41-0.49l0.14,4.8l2.74-0.08c-0.19-6.39,1.53-9.65,5.18-9.76l-12.17,50.79l-2.74,0.08l-0.29-9.59l-2.73,0.08l-14.4,67.66
		l0.29,9.6l-2.56,21.97l12.49,13.75c6.91,1.39,10.27-1.11,10.08-7.5l2.74-0.08c0.19,6.4,2.11,9.54,5.76,9.43l8.21-0.24l-0.14-4.8
		c-3.66-3.75-2.86-7.63,2.39-11.65c2.9-3.57,3.52-13.33,1.86-29.3c0.29-19.22,3.64-28.92,10.08-29.11l14.4,23.58
		c15.38,26.19,41.7,51.81,78.96,76.87l2.74-0.08l2.66-2.48l5.69,7.04l2.73-0.08l13.46-7.61l2.74-0.08
		c-0.13-4.33-4.89-10.59-14.25-18.78l-0.07-2.4l13.96,9.18l-0.07-2.4c-4.68-6.13-9.33-10.82-13.92-14.08
		c5.06-5.69,9.66-16.04,13.78-31.08c0-9.98,19.16-17.98,57.47-24v-4.8l-13.68,2.4l-10.95-2.4l-19.16,4.8v-4.8l60.2-12v14.4l2.74,2.4
		h-2.74l-2.74-2.4h-2.73v9.6l2.73-2.4h2.74l-2.74,2.4v9.6h2.74v-7.2h5.47v7.2l-2.74,2.4c3.97,0,6.7,7.2,8.21,21.6v2.4l-8.21-4.8
		l5.47,28.8h2.73v-9.6h2.74l13.68,40.8c3.65,0,5.47-2.4,5.47-7.2h2.74l2.74,2.4h2.73l-2.73-7.2v-2.4c3.65,0,5.47,2.4,5.47,7.2h5.47
		l-8.21-36h2.74l2.74,2.4v-14.4l-2.74-28.8l2.74-2.4h-2.74l2.74-2.4l-2.74-14.4l2.74-7.2l-5.47-14.4
		c18.24-2.82,27.36-6.02,27.36-9.6v-2.4h-21.89c0-3.2-2.74-4.8-8.21-4.8v-2.4l16.42-2.4v-2.4h-19.16l-21.89-84.01
		c-13.42,0-20.71-2.4-21.89-7.2c-11.06,0-22.92,3.2-35.58,9.6v-2.4l2.74-2.4h-10.95l-13.68,33.6c5.47,0,8.21,1.6,8.21,4.8v2.4h-2.74
		l-2.74-2.4h-2.73l-5.47,9.6v2.4l2.74,2.4h-2.74l-2.74-2.4l-2.74,12v9.6h2.74l2.74-2.4l-2.74,12c-3.65,0-5.47-2.4-5.47-7.2h-2.74
		l-39.82,84.24c-19.49-21.29-30.72-31.96-33.59-31.87l-0.29-9.6l16.27-5.29c14.2-6.17,25.69-18.52,34.48-37.05l-0.14-4.8
		l-26.71,22.41l-2.73,0.08l26.34-34.41l-0.43-14.39c-0.67-22.48-20.25-36.3-58.73-41.46l-32.82,0.98l-48.59,23.06
		C1334.82,503.43,1338.54,505.73,1345.83,505.51 M1348.28,587.07l-0.29-9.6l2.74-0.08l0.29,9.6L1348.28,587.07z M1619.11,647.52
		h2.74l2.73,9.6v4.8h-2.73l-2.74-9.6V647.52z M1599.96,652.32v4.8l-8.21,2.4v-4.8L1599.96,652.32z M1547.97,580.32h-5.47v-2.4
		l27.36-4.8h2.74C1572.59,576.32,1564.38,578.72,1547.97,580.32 M1558.91,522.72h2.74l10.94,36c-1.82,9.6-11.85,14.4-30.1,14.4
		h-5.47L1558.91,522.72z M1526.07,551.52l2.74,2.4l5.47-16.8h2.74v2.4l-8.21,21.6h-2.74l-2.74-9.6H1526.07z M1520.6,568.32h2.74v7.2
		l-2.74,2.4h-2.73L1520.6,568.32z M1501.45,561.12l2.74-2.4h2.74l-2.74,7.2h-2.74V561.12z M1495.97,570.72h5.47l-5.47,9.6h-2.73
		L1495.97,570.72z M1457.54,670.25l0.07,2.4l-11.15-6.87l-0.07-2.4L1457.54,670.25z M1443.5,658.66l-11.23-9.27l-0.07-2.39
		C1435.98,647.63,1439.75,651.52,1443.5,658.66 M1458.34,514.14l2.74-0.08l0.29,9.6l-2.66,2.48l-2.73,0.08L1458.34,514.14z
		 M1453.44,533.5l-13.24,14.8l-2.74,0.08l13.17-17.2l2.74-0.08L1453.44,533.5z M1452.65,507.11l0.14,4.8
		c-3.67-0.64-7.44-4.53-11.3-11.67L1452.65,507.11z M1400.61,506.27l16.27-5.29c22.05,5.08,33.16,10.36,33.32,15.81l0.14,4.8
		c-11.07,13.89-30.75,27.29-59.03,40.18l-2.73,0.08L1400.61,506.27z"/>

<rect x="1352.67" y="546.08" transform="matrix(0.9996 -0.03 0.03 0.9996 -15.8956 40.8115)" style="clip-path:url(#SVGID_00000116202746906317711520000007189711632881399452_);fill:#ffffff;" width="2.74" height="9.6"/>
<polygon style="clip-path:url(#SVGID_00000116202746906317711520000007189711632881399452_);fill:#ffffff;" points="1483.6,535 
		1478.13,535.16 1478.35,542.36 1481.08,542.28 	"/>
<polygon style="clip-path:url(#SVGID_00000116202746906317711520000007189711632881399452_);fill:#ffffff;" points="1354.9,534.05 
		1355.12,541.25 1357.86,541.17 1360.3,531.48 1360.09,524.29 1357.35,524.37 	"/>
<polygon style="clip-path:url(#SVGID_00000116202746906317711520000007189711632881399452_);fill:#ffffff;" points="1580.8,630.72 
		1583.54,645.12 1586.28,645.12 1586.28,630.72 	"/>
<path style="clip-path:url(#SVGID_00000116202746906317711520000007189711632881399452_);fill:#ffffff;" d="M1560.55,801.69
		c-0.02-0.12-0.04-0.24-0.06-0.36c0.01,0.54,0.02,1.1,0.03,1.72c0.01,0.69,0.13,1.33,0.37,1.91c-0.01-0.59-0.08-1.22-0.2-1.92
		C1560.6,802.56,1560.58,802.13,1560.55,801.69"/>
<path style="clip-path:url(#SVGID_00000116202746906317711520000007189711632881399452_);fill:#ffffff;" d="M1560.49,801.33
		c0-0.06,0-0.13,0-0.19c-0.03-0.08-0.04-0.2-0.07-0.29C1560.45,801.02,1560.47,801.17,1560.49,801.33"/>
<path style="clip-path:url(#SVGID_00000116202746906317711520000007189711632881399452_);fill:#ffffff;" d="M1560.18,799.42
		c0.05,0.57,0.12,1.05,0.24,1.43C1560.35,800.4,1560.27,799.93,1560.18,799.42"/>
<path style="clip-path:url(#SVGID_00000116202746906317711520000007189711632881399452_);fill:#ffffff;" d="M1639.53,719.31
		c0.66,0.12,1.33,0.21,1.98,0.39C1640.97,719.52,1640.31,719.4,1639.53,719.31"/>
<path style="clip-path:url(#SVGID_00000116202746906317711520000007189711632881399452_);fill:#ffffff;" d="M1709.33,765.98
		c-0.94,0.02-1.6,0.12-1.97,0.28c-0.35,2-1.24,5.53-2.66,10.6c-1.44,5.08-3.14,10.24-5.14,15.49c-1.99,5.24-4.23,9.92-6.72,14.02
		c-2.48,4.1-5.04,6.16-7.68,6.21c-0.95,0.02-1.71-0.22-2.28-0.71c-0.57-0.49-1.05-0.98-1.44-1.46c0.76,0.48,1.7,0.71,2.84,0.69
		c2.45-0.04,4.6-1.31,6.45-3.82c1.85-2.52,3.36-5.4,4.54-8.64c1.17-3.25,2.06-6.53,2.67-9.86c0.61-3.32,1.09-5.81,1.44-7.47
		c-0.35,1.34-0.98,3.58-1.87,6.73c-0.9,3.16-1.98,6.33-3.25,9.49c-1.27,3.17-2.73,5.97-4.4,8.4c-1.66,2.43-3.44,3.65-5.32,3.69
		c-1.7,0.03-3.27-1.03-4.72-3.15c-1.45-2.14-2.77-4.89-3.96-8.27c-1.18-3.37-2.19-7.08-3.01-11.13c-0.82-4.04-1.5-7.97-2.03-11.77
		c-0.54-3.8-0.96-7.19-1.3-10.17c-0.33-2.97-0.5-5.12-0.52-6.45c-0.08-5.13,0.11-11.05,0.57-17.77c0.46-6.72,1.2-13.56,2.22-20.53
		c1.02-6.97,2.42-13.75,4.21-20.31c1.78-6.57,3.96-12.12,6.54-16.63c0.73-1.33,1.61-2.8,2.62-4.38c1.01-1.59,2.17-3.05,3.47-4.4
		c1.3-1.35,2.75-2.49,4.34-3.42c1.59-0.93,3.33-1.43,5.22-1.45c2.08-0.03,3.31,0.94,3.73,2.92c-0.19,0.17-0.28,0.42-0.27,0.75
		c-0.89,3.66-2.01,7.19-3.37,10.61c-1.36,3.42-2.86,6.79-4.51,10.13c-3.1,6.84-6.4,13.52-9.88,20.03
		c-3.49,6.52-6.78,13.12-9.88,19.79c-1.47,2.84-2.23,5.83-2.27,8.97c-0.05,3.15-0.04,6.21,0.01,9.2c0.01,0.49,0.3,0.74,0.86,0.73
		l0.85-0.26c1.11-1.51,2.07-3.05,2.9-4.64c0.82-1.59,1.69-3.22,2.61-4.89c4.97-8.68,9.88-17.34,14.74-25.94
		c4.87-8.61,9.21-17.49,13.03-26.67c-4.4,8.51-8.84,17.07-13.32,25.68c-4.5,8.6-9.6,16.91-15.32,24.95c1.28-2.17,2.98-5.18,5.1-9.02
		c2.1-3.84,4.35-8.02,6.74-12.53c2.38-4.51,4.81-9.18,7.28-14.03c2.47-4.85,4.66-9.51,6.57-14.02c1.91-4.51,3.5-8.59,4.76-12.25
		c1.26-3.66,1.88-6.57,1.85-8.73c-0.05-2.98-1.13-5.61-3.24-7.9c3.43,1.77,5.16,4.64,5.23,8.61c0.04,2.15-0.4,4.48-1.3,6.98
		c1.46-3,2.17-5.91,2.13-8.73c-0.05-3.31-1.22-5.89-3.52-7.76c-2.29-1.87-5.33-2.78-9.1-2.72c-4.72,0.07-8.91,1.22-12.55,3.43
		c-3.65,2.21-6.97,4.83-9.93,7.86c-5.2,5.39-9.44,11.75-12.73,19.08c-3.28,7.35-5.84,15.08-7.7,23.23
		c-1.85,8.14-3.14,16.24-3.86,24.28c-0.55,6.17-0.85,11.96-0.92,17.39c-0.14,0.72-0.35,1.52-0.61,2.36
		c-0.03-1.71-0.06-3.43-0.08-5.19c-0.12-7.45,0.09-14.94,0.64-22.49c0.54-7.54,1.73-15.01,3.61-22.41
		c1.86-7.4,4.44-14.56,7.73-21.49c3.29-6.92,7.62-13.41,13-19.45c2.04-2.35,4.27-4.71,6.68-7.07c2.42-2.36,5.13-4.31,8.12-5.85
		c-4.5,2.06-8.61,4.9-12.32,8.52c-3.72,3.62-7.06,7.65-10.01,12.08c-2.95,4.44-5.48,9-7.57,13.66c-2.1,4.66-3.78,9-5.03,12.99
		c-2.68,9.15-4.57,18.41-5.65,27.79c-1.08,9.38-1.55,18.78-1.4,28.22c0.03,1.8,0.1,3.83,0.19,6.06c-0.16,0.35-0.29,0.67-0.46,1.03
		c-1.74,3.67-3.92,7.19-6.55,10.57c-2.64,3.38-5.57,6.28-8.77,8.69c-3.21,2.41-6.38,3.64-9.51,3.69c-2.47,0.04-4.38-0.62-5.74-1.99
		c-1.36-1.36-2.4-3.08-3.1-5.14c-0.71-2.07-1.19-4.19-1.45-6.37c-0.26-2.18-0.4-4.06-0.42-5.65c-0.03-2.1,0.07-4.21,0.26-6.32
		c0.19-0.1,0.37-0.21,0.55-0.31c-0.34,2.55-0.51,4.92-0.48,7.1c0.03,1.77,0.11,3.53,0.26,5.3c0.14,1.76,0.56,3.43,1.26,4.99
		c-0.25-1.37-0.44-2.69-0.57-3.97c-0.14-1.27-0.21-2.6-0.23-3.97c-0.02-1.38-0.04-2.75-0.06-4.12c-0.03-1.38,0.17-2.76,0.61-4.13
		c1.35,0.57,2.92,0.83,4.71,0.8c3.36-0.05,6.59-0.89,9.7-2.51c3.11-1.62,5.82-3.63,8.13-6.03c2.31-2.39,4.18-5.07,5.58-8.04
		c1.41-2.97,2.1-5.83,2.05-8.58c-0.06-4.12-1.57-7.14-4.52-9.06c-2.94-1.92-6.65-2.84-11.13-2.77c-3.81,0.06-7.26,0.9-10.37,2.52
		c-3.11,1.62-5.88,3.54-8.3,5.73c4.62-5.38,10.95-8.72,18.99-10.02c-6.04,0.09-11.06,1.99-15.03,5.68
		c-3.97,3.71-7.5,7.54-10.57,11.52c2.6-5.34,6.39-10.17,11.35-14.48c4.97-4.29,11.04-6.5,18.21-6.62c1.18-0.02,2.2,0.02,3.07,0.12
		c-1.43-0.25-2.89-0.42-4.42-0.4c-6.04,0.1-11.34,1.86-15.87,5.27c-4.54,3.41-8.39,7.55-11.56,12.41
		c-3.17,4.86-5.49,10.1-6.96,15.73c-0.21,0.8-0.37,1.57-0.55,2.35c-1.47-0.42-2.86-1.02-4.14-1.83c1.28-4.15,2.27-8.38,2.99-12.72
		c0.72-4.32,1.04-8.66,0.97-12.98c-0.04-2.55-0.14-5.06-0.29-7.51c-0.16-2.45-0.47-4.85-0.96-7.21c0.51,3.73,0.68,7.46,0.51,11.2
		c-0.16,3.73-0.44,7.47-0.83,11.21c-0.6,4.53-1.8,9.95-3.61,16.26c-1.8,6.32-3.94,12.68-6.41,19.11c-2.48,6.42-5.23,12.6-8.27,18.54
		c-3.04,5.94-5.99,10.81-8.84,14.58c3.94-5.95,7.36-12.34,10.28-19.16c2.92-6.84,5.44-13.89,7.56-21.19
		c2.12-7.3,3.68-14.59,4.69-21.88c1-7.28,1.45-14.36,1.34-21.24c-0.03-1.56-0.22-3.28-0.58-5.14c-0.37-1.86-1.07-3.62-2.1-5.28
		c-1.04-1.64-2.35-3.01-3.92-4.06c-1.6-1.05-3.5-1.56-5.74-1.52c-1.12,0.01-2.3,0.18-3.52,0.49c-1.23,0.32-2.17,0.97-2.83,1.96
		c-0.44,0.4-0.7,1.24-0.79,2.51c-0.1,1.29-0.25,2.66-0.44,4.14c-0.2,1.48-0.29,2.85-0.27,4.13c0.02,1.28,0.03,2.21,0.05,2.8
		c0.08,5.7,0.51,11.15,1.27,16.34c0.75,5.2,2.52,10.52,5.29,15.98c-1.21,8.46-3.49,16.7-6.83,24.71c-3.35,8-6.97,15.86-10.89,23.6
		c-0.52-4.71-1.1-9.9-1.75-15.59c-0.65-5.69-1.47-11.42-2.45-17.2c-0.99-5.77-2.09-11.4-3.3-16.89c-1.21-5.47-2.52-10.46-3.93-14.96
		c-1.18-3.52-2.87-7.56-5.06-12.15c-2.2-4.58-4.74-9.16-7.61-13.73c-2.87-4.57-6.02-8.75-9.44-12.52
		c-3.42-3.77-7.05-6.52-10.88-8.23c4.08,3.08,7.84,7.29,11.29,12.65c3.45,5.35,6.56,11.28,9.35,17.82
		c2.79,6.54,5.31,13.42,7.56,20.65c1.21,3.91,2.32,7.79,3.37,11.65c-0.82-2.73-2.28-6.6-4.38-11.63c-2.45-5.86-5.22-11.8-8.35-17.84
		c-3.12-6.04-6.51-11.48-10.17-16.34c-3.66-4.85-6.95-7.64-9.88-8.39c-0.9-0.18-2.13-0.26-3.7-0.24c-2.46,0.04-5.07,0.97-7.85,2.78
		c-2.77,1.81-4.7,3.71-5.79,5.69c1.83,1.93,3.7,3.86,5.64,5.81c1.93,1.93,3.59,3.96,4.97,6.1c4.82,7.39,8.85,15,12.12,22.79
		c1.96,4.71,3.77,9.51,5.46,14.36c-0.87-0.17-1.72-0.28-2.54-0.27c0.25,1.77-0.48,5.51-2.17,11.23c-1.71,5.73-3.91,11.66-6.6,17.79
		c-2.71,6.14-5.53,11.58-8.48,16.34c-2.95,4.76-5.43,7.16-7.44,7.2c-0.45,0-0.73-0.53-0.87-1.61c-0.13-1.08-0.2-1.82-0.2-2.22
		c-0.04-2.15,0.1-4.31,0.4-6.48c0.31-2.17,0.66-4.34,1.07-6.5c1.02-6.3,2.04-12.6,3.06-18.91c1.02-6.3,1.48-12.69,1.38-19.17
		c-0.08-5.3-1.05-8.82-2.89-10.56c-1.84-1.74-6.07-2.55-12.65-2.44c-0.45,0-1.19,0.06-2.21,0.18c-1.03,0.12-2.04,0.22-3.06,0.34
		c-1.03,0.12-1.93,0.32-2.72,0.63c-0.79,0.31-1.18,0.75-1.17,1.34c0.02,1.38-1.04,4.39-3.16,9.05c-2.12,4.65-4.63,9.45-7.52,14.4
		c-2.89,4.96-5.69,9.38-8.41,13.25c-2.72,3.88-4.64,5.82-5.76,5.84c-1.12,0.02-2.02-0.51-2.71-1.58c-0.69-1.06-1.04-1.99-1.05-2.78
		c-0.02-0.98,0.07-2.65,0.25-5.01c0.18-2.37,0.49-3.84,0.94-4.43c1.28-3.95,2.56-7.9,3.84-11.86c1.28-3.94,3.01-7.7,5.2-11.27
		c-1.72,4.55-3.5,9.09-5.33,13.64c-1.83,4.55-2.93,9.28-3.3,14.19c2.74-11.04,7.27-21.52,13.61-31.45
		c-1.09,2.37-2.16,4.75-3.24,7.12c-1.09,2.37-2.28,4.65-3.59,6.83c1.96-3.37,3.87-6.74,5.72-10.11c1.85-3.37,3.98-6.64,6.39-9.83
		c-1.53,2.78-3.32,5.95-5.39,9.52c-2.08,3.57-3.98,7.28-5.7,11.14c-1.73,3.86-3.24,7.67-4.52,11.42c-1.28,3.76-1.9,7.1-1.85,10.05
		l0.02,1.77c0.4-2.96,1.83-7.6,4.31-13.92c2.47-6.33,5.4-12.66,8.77-19c3.37-6.34,7.14-11.94,11.32-16.83
		c4.18-4.88,8.17-7.35,11.98-7.41c2.69-0.04,4.82,0.66,6.41,2.11c1.59,1.44,2.4,3.34,2.44,5.7c0.02,1.18-0.02,2.56-0.1,4.13
		c-0.09,1.57,0.99,2.34,3.23,2.3c1.79-0.02,2.96-0.34,3.52-0.94c0.55-0.6,0.81-1.58,0.79-2.96c-0.09-5.69-2.01-9.84-5.74-12.43
		c-3.74-2.59-8.63-3.84-14.67-3.75c-5.6,0.09-10.68,1.45-15.22,4.07c-4.55,2.63-8.59,5.93-12.1,9.92
		c-3.53,3.99-6.53,8.26-9.03,12.81c-0.18,0.34-0.35,0.66-0.53,0.99c-0.12-1.13-0.23-2.27-0.34-3.43c2.6-4.86,5.71-9.21,9.36-13.02
		c4.96-5.19,11.44-9.24,19.45-12.18c1.78-0.67,3.56-1.28,5.35-1.85c1.78-0.56,3.69-0.87,5.7-0.9c2.91-0.05,5.61,0.53,8.09,1.71
		c-0.92-0.99-2.27-1.63-4.06-1.9c-1.8-0.28-3.36-0.4-4.71-0.38c-8.05,0.12-15.3,2.56-21.72,7.29c-6.42,4.74-11.93,10.53-16.52,17.4
		c-0.39,0.59-0.73,1.19-1.1,1.78c-0.16-1.96-0.27-3.9-0.3-5.81c-0.04-2.55-0.08-4.51-0.1-5.89c-0.03-1.77-0.02-4.42,0.04-7.96
		c0.06-3.54-0.23-7.17-0.84-10.88c-0.62-3.72-1.62-6.95-3.01-9.68c-1.39-2.72-3.42-4.07-6.11-4.03c-2.91,0.05-5.32,0.72-7.2,2.03
		c-1.9,1.31-2.82,3.33-2.77,6.08c0.02,0.99,0.26,2.26,0.74,3.82c-2.45,3.18-4.83,6.9-7.15,11.16c-2.31,4.26-4.41,8.66-6.26,13.21
		c-1.86,4.55-3.49,9.14-4.89,13.78c-1.41,4.65-2.53,8.84-3.38,12.58c0.99-8.85,3.25-17.53,6.77-26.04
		c3.51-8.5,7.26-16.91,11.23-25.22c-4.68,6.75-8.27,13.93-10.77,21.53c-2.5,7.61-4.94,15.16-7.33,22.66c0.22-3.15,0.53-6.2,0.9-9.15
		c0.38-2.96,0.54-6,0.49-9.14c-0.01-0.98-0.26-2.01-0.72-3.08c-0.47-1.07-1.26-1.9-2.4-2.47c-0.32,7.67-0.65,15.38-0.97,23.15
		c-0.14,3.19-0.21,6.37-0.26,9.54c-0.21-0.01-0.39-0.04-0.61-0.03c-0.38,0.01-0.67,0.03-0.98,0.06c0.16-3.92,0.32-7.83,0.48-11.76
		c0.16-3.92,0.32-7.86,0.49-11.79c0.19-1.57,0.34-3.05,0.43-4.43c0.09-1.38,0.12-2.84,0.09-4.43c-0.01-0.58-0.36-0.92-1.05-1.01
		c-0.69-0.08-1.26-0.13-1.71-0.12c-4.35,0.07-8.58,0.73-12.68,1.97c-0.78,7.48-1.22,15.05-1.32,22.72
		c-0.1,7.65-0.09,15.22,0.02,22.68c0.03,1.77,0.13,4.42,0.29,7.96c0.18,3.53,0.69,7.06,1.54,10.58c0.33,1.35,0.73,2.61,1.17,3.82
		c-0.79,1.33-1.61,2.63-2.5,3.83c-2.76,3.76-6.27,5.67-10.51,5.74c-2.83,0.04-5.21-1.15-7.17-3.6c-1.96-2.45-3.56-5.34-4.83-8.69
		c-1.26-3.34-2.27-6.69-3.04-10.04c-0.76-3.35-1.26-5.9-1.48-7.68c0.04,2.3,0.27,5.04,0.73,8.22c0.46,3.18,1.21,6.31,2.27,9.39
		c1.05,3.08,2.52,5.84,4.37,8.29c1.86,2.46,4.3,4.1,7.34,4.93c-3.84-0.47-6.85-2.5-9.02-6.1c-2.17-3.59-3.81-7.68-4.89-12.27
		c-1.08-4.58-1.86-9.17-2.34-13.77c-0.48-4.59-0.84-8.22-1.08-10.88c0.05,3.01,0.16,7.04,0.35,12.08c0.18,5.04,0.92,9.99,2.21,14.84
		c1.29,4.85,3.27,8.97,5.95,12.39c2.67,3.41,6.44,5.07,11.28,4.99c2.02-0.03,4.03-0.42,6.03-1.16c-1.59,1.27-3.81,1.92-6.63,1.96
		c-3.23,0.05-6.02-0.83-8.36-2.65c-2.35-1.82-4.31-4.25-5.87-7.32c-1.56-3.06-2.78-6.44-3.64-10.14c-0.87-3.7-1.53-7.35-1.99-10.96
		c-0.46-3.61-0.77-7.04-0.93-10.31c-0.16-3.27-0.24-5.86-0.27-7.81c-0.28-18,2.15-35.7,7.33-53.1c-1.49,8.15-2.72,16.34-3.7,24.57
		c-0.98,8.23-1.4,16.49-1.27,24.79c0.02,1.06,0.03,2.07,0.05,3.04c0.01,0.97,0.13,1.99,0.35,3.04c0.27-8.13,0.85-16.26,1.73-24.4
		c0.88-8.14,2.17-16.19,3.86-24.17c-2.18,15.4-3.15,30.78-2.91,46.14c0.04,2.65,0.2,6.18,0.48,10.59c0.27,4.41,0.85,8.9,1.73,13.48
		c0.88,4.57,2.2,8.75,3.98,12.52c1.78,3.77,4.08,6.33,6.94,7.7c-1.45-2.62-2.72-6.01-3.8-10.13c-1.08-4.13-1.95-8.49-2.63-13.07
		c-0.68-4.58-1.21-9.07-1.57-13.49c-0.37-4.41-0.59-8.12-0.64-11.12c-0.01-0.52,0.04-1,0.13-1.45c0.09-0.44,0.14-0.93,0.13-1.47
		c0.47-8.3,1.19-16.48,2.18-24.53c0.98-8.05,2.52-16.16,4.61-24.31c4.24,0.11,8.43,0.13,12.57,0.06c4.13-0.07,8.32-0.3,12.55-0.73
		c-12.11-0.18-24.23-0.81-36.36-1.93c-12.13-1.11-24.26-1.94-36.38-2.49c10.7-0.17,21.3,0.37,31.82,1.62
		c10.51,1.25,21.12,1.79,31.82,1.62c3.23-0.05,5.75-0.23,7.56-0.53c1.81-0.31,2.69-2.31,2.63-6l-0.02-1.06
		c-3.83,0.42-7.56,0.74-11.19,0.97c-3.63,0.24-7.36,0.48-11.19,0.72c2.82-0.22,6.2-0.63,10.12-1.22c3.92-0.6,6.98-1.88,9.17-3.87
		c-3.41,1.65-6.72,2.67-9.94,3.08c-3.23,0.41-6.86,0.64-10.89,0.7c0.77-2.48,1.54-4.93,2.31-7.34c0.76-2.4,1.64-4.85,2.6-7.34
		c-0.62-1.23-1.75-2.01-3.37-2.34c-1.63-0.33-3.14-0.48-4.55-0.46l-2.12,0.04c-1.62,0.21-3.06,0.97-4.36,2.32
		c-1.29,1.35-2.53,2.96-3.7,4.84c-1.18,1.88-2.22,3.75-3.09,5.63c-0.88,1.87-1.52,3.34-1.9,4.41c-5.66-0.26-11.27-0.66-16.82-1.19
		c-5.56-0.53-11.17-0.76-16.82-0.67c-2.83,0.05-5.8,0.46-8.91,1.24c-3.12,0.77-4.65,2.89-4.59,6.33c0.02,1.27,0.34,2.44,0.96,3.52
		c2.63-0.04,6.1,0.03,10.45,0.23c4.35,0.2,8.64,0.7,12.89,1.52c4.25,0.82,7.96,2.12,11.11,3.93c3.16,1.81,4.76,4.3,4.82,7.48
		c0.04,2.3-0.23,4.56-0.8,6.77c-0.57,2.22-1.04,4.39-1.42,6.52c-1.3,6.91-2.25,13.81-2.84,20.71c-0.59,6.9-0.84,13.88-0.72,20.94
		c0.09,5.83,0.7,12.14,1.81,18.92c1.12,6.79,3.33,12.8,6.65,18.04c2.48,3.85,5.72,7.59,9.71,11.24c4,3.65,8.82,5.43,14.47,5.34
		c3.64-0.06,7.2-1,10.7-2.83c3.51-1.83,6.35-3.99,8.53-6.51c-2.19,1.99-4.79,3.71-7.79,5.17c-3.01,1.47-6.22,2.23-9.66,2.28
		c-4.04,0.06-7.69-0.76-10.94-2.48c-3.26-1.72-6.07-3.97-8.43-6.77c-2.37-2.79-4.28-5.87-5.74-9.2c-1.47-3.34-2.53-6.51-3.18-9.51
		c0.85,2.64,1.9,5.37,3.16,8.18c1.26,2.81,2.81,5.31,4.66,7.5c1.85,2.18,4.1,4.01,6.74,5.46c2.64,1.47,5.79,2.16,9.43,2.11
		c6.25-0.1,11.37-2.3,15.33-6.61c2.25-2.45,4.22-5.17,5.98-8.12c1.16,0.55,2.47,0.84,3.97,0.81c1.36-0.03,3.69-0.35,6.97-1
		c3.28-0.64,5.26-1.46,5.92-2.44c-0.25-0.98-0.49-1.86-0.71-2.64c-0.24-0.79-0.37-1.67-0.38-2.65c-0.06-4.11,0.31-8.3,1.15-12.54
		c0.82-4.24,1.54-8.32,2.16-12.26c1.03-5.12,1.96-10.3,2.78-15.51c0.81-5.21,1.95-10.29,3.46-15.23c1.06-3.94,2.4-7.74,4.02-11.41
		c1.62-3.66,3.29-7.27,5.03-10.83c-0.56,8.06-0.77,16.01-0.65,23.87c0.03,1.38,0.1,3,0.25,4.85c0.14,1.87,0.51,3.58,1.1,5.15
		c0.59,1.57,1.51,2.92,2.76,4.08c1.25,1.15,2.99,1.72,5.23,1.68c0.17,0,0.36-0.02,0.54-0.03c-0.16,0.5-0.36,0.99-0.52,1.49
		c-2.35,7.63-3.46,14.49-3.37,20.6c0.06,3.74,2,6.67,5.85,8.77c3.84,2.11,7.66,3.13,11.47,3.06c0.89-0.01,1.68-0.08,2.35-0.19
		c0.67-0.11,1.45-0.27,2.34-0.47c2.22-0.63,4.55-2.45,6.96-5.43c2.42-3,4.65-6.33,6.73-10.01c2.07-3.68,3.92-7.35,5.54-11.02
		c1.62-3.67,2.75-6.49,3.4-8.47c-0.67,4.74-1.35,9.53-2.02,14.36s-0.96,9.72-0.88,14.64c0.03,1.97,0.24,4.53,0.63,7.67
		c0.38,3.15,1,6.24,1.83,9.28c0.84,3.03,2.13,5.78,3.86,8.22c1.74,2.43,3.96,3.92,6.68,4.46c0.23,0,0.91,0.14,2.03,0.42
		c1.14,0.28,1.81,0.41,2.04,0.41c4.96-0.08,9.91-1.82,14.83-5.24c4.91-3.42,7.66-7.39,8.28-11.92c-0.65,1.19-1.53,2.58-2.62,4.17
		c-1.1,1.59-2.36,3.09-3.8,4.48c-1.44,1.4-2.98,2.7-4.64,3.91c-1.66,1.2-3.16,1.92-4.5,2.13c2.88-1.82,5.96-5.2,9.24-10.17
		c3.28-4.96,6.32-10.36,9.14-16.2c2.82-5.84,5.14-11.52,6.95-17.06c0.83-2.53,1.45-4.8,1.89-6.88c0.01,0.02,0.02,0.05,0.02,0.07
		c2.48,8.21,4.68,16.48,6.61,24.79c1.92,8.33,4.06,16.49,6.44,24.5c-1.11,0.81-2.05,1.9-2.8,3.29c-0.77,1.39-1.14,2.67-1.12,3.85
		c0.04,2.16,1.52,3.71,4.44,4.65c2.93,0.93,5.28,1.38,7.08,1.36c3.13-0.05,5.19-0.73,6.18-2.02c0.98-1.29,1.57-3.12,1.75-5.48
		c4.19-3.8,7.94-8.08,11.23-12.85c3.28-4.76,6.28-9.67,9-14.73c2.73-5.05,5.16-10.2,7.32-15.43c2.16-5.24,4.09-10.33,5.81-15.27
		c1.52,0.47,3.09,0.82,4.69,1.08c-0.16,1.65-0.27,3.25-0.24,4.74c0.06,3.73,0.52,7.45,1.36,11.17c0.85,3.72,2.23,7.09,4.19,10.1
		c1.95,3.02,4.56,5.43,7.84,7.24c3.27,1.82,7.48,2.68,12.64,2.6c2.46-0.04,5.03-0.51,7.71-1.41c2.67-0.91,5-1.96,7.01-3.14
		c-2.23,0.8-4.34,1.6-6.35,2.4c-2,0.8-4.23,1.2-6.7,1.24c-4.25,0.07-8.07-0.77-11.46-2.54c-3.39-1.77-6-4.26-7.85-7.49
		c1.83,2.33,4.21,4.36,7.15,6.08c2.93,1.72,6.19,2.55,9.78,2.5c4.71-0.08,9.1-1.42,13.2-4.04c4.1-2.62,7.75-5.81,10.93-9.59
		c1.88-2.23,3.54-4.57,5.03-7c0.22,1.95,0.45,3.91,0.76,5.95c0.74,5.04,1.86,10.04,3.36,14.98c1.5,4.94,3.45,9.34,5.88,13.19
		c2.42,3.86,5.44,7,9.07,9.42c3.62,2.42,7.99,3.6,13.08,3.52c4.53-0.07,8.51-2.16,11.94-6.28c3.42-4.11,6.38-8.96,8.83-14.54
		c2.46-5.6,4.45-11.21,5.96-16.87c1.51-5.66,2.63-10.06,3.33-13.22c0.17-0.5,0.27-1.25,0.25-2.24
		C1713.61,767.16,1712.17,765.93,1709.33,765.98 M1354.4,708.63c-0.28,1.25-0.62,2.58-1,4.01c-1.03-0.87-2.45-1.77-4.28-2.72
		c-1.83-0.95-3.82-1.8-5.94-2.56c-2.13-0.76-4.26-1.44-6.39-2.02c-2.12-0.58-3.9-1.14-5.32-1.64l24.24,1.21
		C1355.11,706.15,1354.68,707.4,1354.4,708.63 M1402.18,761.97c-0.01-4.53,0.04-9.04,0.23-13.51c0.25-5.8,0.42-11.65,0.56-17.55
		c0.24,0.99,0.37,1.82,0.38,2.51c0.02,0.69,0.03,1.52,0.04,2.5c0.07,4.32,0.08,8.64,0.04,12.96c-0.05,4.31-0.04,8.62,0.04,12.93
		C1402.96,761.84,1402.53,761.9,1402.18,761.97 M1403.68,790.23c0.08-0.26,0.14-0.53,0.21-0.79l0.03,2.16
		C1403.84,791.15,1403.77,790.68,1403.68,790.23 M1419.38,745.09c-1.85,5.73-3.58,11.69-5.2,17.91c-1.61,6.21-2.95,12.18-3.99,17.89
		c-1.06,5.72-1.55,10.34-1.49,13.87c0.01,0.99,0.08,1.87,0.21,2.65c0.12,0.78,0.41,1.56,0.88,2.34c0.01,0.4-0.15,0.94-0.48,1.63
		c-0.32,0.7-0.71,1.04-1.16,1.05c-0.67,0.01-1.12-0.43-1.36-1.31c-0.24-0.88-0.36-1.51-0.37-1.91c-0.89-3.99-1.53-8.02-1.93-12.09
		c0.29-1.18,0.55-2.36,0.78-3.56c0.02,0.55,0.03,1.12,0.05,1.67c0.14,3.24,0.6,6.53,1.38,9.85c1.65-10.83,3.75-21.61,6.32-32.37
		c2.57-10.74,6.39-21.17,11.47-31.26C1422.93,734.83,1421.24,739.37,1419.38,745.09 M1436.75,753.36c-1.03-1.35-1.79-2.92-2.26-4.68
		c-0.48-1.76-0.79-3.57-0.93-5.44c-0.14-1.86-0.22-3.38-0.23-4.56c-0.09-5.3-0.01-10.65,0.24-16.06c0.25-5.4,0.78-10.77,1.6-16.08
		c-0.39,4.33-0.66,8.55-0.81,12.68c-0.16,4.13-0.2,8.36-0.14,12.67l0.13,7.95c-0.08-5.1,0.02-10.21,0.31-15.32
		c0.29-5.11,0.58-10.22,0.88-15.34c-0.04,4.52-0.05,8.94-0.03,13.25c0.01,4.33,0.05,8.74,0.12,13.26c0.03,2.36,0.25,5.26,0.64,8.68
		c0.39,3.43,1.15,6.22,2.32,8.36c-0.71-2.34-1.15-4.69-1.28-7.05c-0.16-2.35-0.25-4.7-0.28-7.06c-0.11-6.68,0.11-13.46,0.68-20.34
		c0.04,2.56,0.03,5.5-0.03,8.84c-0.06,3.35-0.06,6.73-0.01,10.16c0.05,3.44,0.33,6.77,0.84,10.01c0.5,3.23,1.32,5.92,2.48,8.06
		C1439.19,755.39,1437.78,754.72,1436.75,753.36 M1495.68,804.58c-0.58-1.36-1-2.83-1.25-4.41c-0.25-1.56-0.39-3.13-0.41-4.7
		c-0.03-1.58-0.05-2.75-0.06-3.54c-0.09-5.7,0.27-11.3,1.08-16.81c0.81-5.51,1.72-11.03,2.76-16.55c0.09,5.7-0.49,11.35-1.74,16.98
		c-1.26,5.62-1.73,11.27-1.41,16.97l-0.02-0.89c-0.05-3.14,0.29-6.24,1.03-9.3c0.73-3.06,1.41-6.07,2.04-9.02
		c0.82-4.33,1.49-8.57,1.98-12.7c0.49-4.13,0.93-8.37,1.31-12.69c-0.01-0.39,0.04-0.69,0.16-0.89c0.1-0.2,0.16-0.49,0.15-0.89
		c0.23,0.59,0.36,1.47,0.38,2.64c0.14,8.65-0.68,17.16-2.45,25.53c-1.78,8.38-2.59,16.89-2.45,25.52c0.01,0.79,0.03,1.87,0.05,3.25
		c0.02,1.38,0.26,2.35,0.72,2.93l0.69,0.87C1497.11,806.72,1496.26,805.95,1495.68,804.58 M1520.89,784
		c-1.17,3.85-2.68,7.75-4.52,11.71c-1.85,3.96-3.91,7.42-6.21,10.41c-2.31,2.98-4.47,4.49-6.48,4.52c-1.34,0.02-2.36-0.26-3.04-0.83
		c2.48,0.94,4.88,0.21,7.18-2.18c2.33-2.4,4.4-5.32,6.25-8.79c1.85-3.46,3.42-6.98,4.7-10.54c1.29-3.55,2.26-6.03,2.91-7.41
		c-1.95,4.16-4.06,8.51-6.35,13.06c-2.27,4.56-5.18,8.54-8.71,11.93c3.72-4.78,6.78-9.89,9.16-15.33
		c2.37-5.43,4.53-10.92,6.45-16.45c0.23,0.39,0.35,0.98,0.36,1.75C1522.63,777.44,1522.05,780.14,1520.89,784 M1558.86,806.07
		c-0.11,0.3-0.17,0.55-0.16,0.74c-0.48-2.15-1.07-4.36-1.78-6.6c-0.71-2.24-1.3-4.45-1.79-6.6c-0.72-3.12-1.56-6.65-2.52-10.56
		c-0.96-3.92-1.92-7.88-2.88-11.88c-0.97-4.01-2.03-7.93-3.21-11.74c-1.19-3.81-2.47-7.18-3.86-10.1
		c2.58,7.62,4.96,15.83,7.11,24.64c2.16,8.8,3.85,17.22,5.11,25.25l-5.68-18.77c-2.83-9.19-5.39-18.82-7.68-28.9
		c-2.3-10.08-5.41-19.51-9.36-28.29l11.79,23.09l0.34,0.29c-1.16-2.54-2.32-5.07-3.48-7.61c-1.16-2.53-2.32-5.07-3.48-7.61
		c-1.16-2.52-2.43-4.96-3.81-7.3c-1.38-2.34-2.77-4.77-4.15-7.3c3.21,4.47,6.02,8.99,8.45,13.56c2.42,4.58,4.68,9.21,6.77,13.89
		c0.7,1.76,1.88,5.63,3.54,11.59c1.66,5.97,3.27,12.28,4.84,18.92c1.56,6.66,2.94,12.97,4.17,18.94c0.48,2.35,0.86,4.37,1.16,6.07
		c-0.02-0.3-0.06-0.58-0.06-0.94c-1.01-6.85-2.25-14.39-3.72-22.62c-0.69-3.85-1.44-7.53-2.22-11.08
		c1.37,5.94,2.54,11.65,3.48,17.09c1.11,6.37,1.92,11.91,2.46,16.61c0,0.4,0.07,0.84,0.19,1.33c0.11,0.49,0.17,0.93,0.18,1.32
		c0,0.17,0.05,0.38,0.06,0.56c0.21,1.44,0.33,2.54,0.34,3.27C1559.02,805.54,1558.96,805.78,1558.86,806.07 M1615.43,753.79
		c0.16-0.8,0.31-1.6,0.51-2.39c-0.32,0.83-0.6,1.68-0.87,2.54c-0.42,0.16-0.86,0.3-1.3,0.43c0.01-0.05,0.02-0.1,0.03-0.14
		c0.74-2.86,1.7-5.52,2.89-8c1.2-2.47,2.68-4.21,4.46-5.22c-2.14,3.3-3.78,7.47-4.93,12.46
		C1615.96,753.58,1615.69,753.68,1615.43,753.79 M1638.44,751.04c3.3-3.78,4.91-8.13,4.83-13.04c-0.02-1.57-0.39-3.33-1.09-5.29
		c-0.7-1.95-1.74-3.51-3.1-4.66c1.79,0.37,3.1,1.57,3.92,3.62c0.81,2.05,1.24,3.86,1.26,5.43c0.1,6.29-2.06,11.57-6.47,15.86
		c-4.41,4.3-9.96,7.09-16.66,8.37c0.88-0.4,1.72-0.66,2.51-0.78c0.78-0.11,1.62-0.36,2.51-0.77
		C1631.04,757.74,1635.14,754.82,1638.44,751.04 M1606.82,769.22c-0.02-1.37-0.05-2.74-0.07-4.12c-0.01-0.68,0.03-1.35,0.05-2.02
		c0.15-0.03,0.3-0.04,0.46-0.07c-0.1,1.39-0.17,2.77-0.14,4.15c0.02,0.98,0.03,1.97,0.05,2.95c0.01,0.98,0.14,1.96,0.39,2.94
		C1607.07,771.87,1606.83,770.59,1606.82,769.22 M1608.37,771.84c-0.38-2.14-0.58-4.31-0.61-6.47c-0.01-0.84,0.02-1.66,0.06-2.48
		c0.33-0.07,0.67-0.16,1-0.24c-0.05,0.74-0.08,1.45-0.07,2.12c0.07,4.52,0.48,8.94,1.22,13.24
		C1609.28,776.06,1608.73,774,1608.37,771.84 M1609.05,755.28c0.17-0.63,0.33-1.25,0.54-1.87c1.28-3.85,2.79-7.65,4.52-11.41
		c-2.41,3.57-4.2,7.58-5.35,12.01c-0.12,0.45-0.2,0.9-0.31,1.35c-0.27,0.03-0.54,0.08-0.81,0.11c0.36-1.87,0.8-3.73,1.39-5.59
		c1.6-5.03,4.6-9.45,9.03-13.25c1.32-1.2,2.87-2.26,4.65-3.17c1.78-0.91,3.68-1.38,5.69-1.41c1.79-0.03,3.26,0.29,4.39,0.96
		c1.13,0.68,1.7,1.79,1.73,3.37c0.02,1.38-0.51,3.2-1.59,5.47c-1.08,2.28-2.45,4.56-4.09,6.84c-1.65,2.29-3.46,4.23-5.45,5.84
		c-1.98,1.61-3.76,2.41-5.33,2.44l-0.07-4.41c-0.07,0.04-0.15,0.08-0.23,0.12c0.2-0.99,0.47-1.93,0.85-2.79l0,0.3
		c-0.01-0.98,0.36-2.31,1.11-3.99c0.76-1.68,1.74-3.37,2.95-5.06c1.2-1.69,2.41-3.28,3.61-4.77c1.21-1.49,2.26-2.54,3.15-3.14
		c-3.58,0.05-6.65,1.29-9.18,3.68c-2.54,2.4-4.67,5.23-6.41,8.49c-1.66,3.12-2.91,6.38-3.74,9.76
		C1609.74,755.2,1609.39,755.24,1609.05,755.28 M1613.17,777.96c-0.84-3.53-1.27-6.27-1.3-8.23c-0.03-1.77,0.1-4.08,0.39-6.93
		c0.05-0.44,0.13-0.88,0.19-1.32c0.42-0.16,0.84-0.33,1.22-0.51c-0.34,2.9-0.5,5.72-0.46,8.44c0.04,2.16,0.42,4.8,1.13,7.93
		c0.73,3.14,1.99,5.48,3.81,7.02C1615.66,783.62,1614,781.47,1613.17,777.96 M1672.47,798.74c-1.39-4.36-2.51-9.1-3.34-14.23
		c-0.84-5.12-1.43-10.08-1.79-14.88c-0.36-4.79-0.56-8.52-0.6-11.17c-0.04-2.81-0.09-5.67-0.14-8.57c-0.02-1.32,0.01-2.63,0.07-3.94
		c-0.17,2.21-0.32,4.4-0.45,6.55c-0.22,3.65-0.31,7.37-0.25,11.18c0.07,4.64,0.29,9.23,0.65,13.78c0.35,4.55,0.75,9.14,1.21,13.77
		c-1.03-5.11-1.77-10.24-2.23-15.36c-0.46-5.13-0.73-10.26-0.81-15.39c-0.15-9.44,0.36-19.09,1.52-28.97
		c1.16-9.88,3.56-19.3,7.2-28.31c-1.57,8.47-2.98,16.94-4.27,25.41c-1.28,8.47-1.85,17-1.71,25.61c0.06,3.97,0.22,8.32,0.49,13.03
		c0.26,4.72,0.76,9.51,1.5,14.39c0.74,4.88,1.76,9.58,3.05,14.11c1.3,4.53,3.01,8.52,5.15,11.96
		C1675.61,806.1,1673.87,803.11,1672.47,798.74"/>
<path style="clip-path:url(#SVGID_00000116202746906317711520000007189711632881399452_);fill:#ffffff;" d="M880.37,723.02
		c-23.59-62.68-53.32-120.57-88.41-172.17l77.49-72.82c99.59-68.11,107.95-87.72,107.95-101.97c0-3.95-1.3-21.93-24.5-25.79
		c-14.69-22.13-32.54-27.05-45.5-27.05c-0.91,0-1.86,0.04-2.83,0.1c-1.19-0.09-2.39-0.16-3.61-0.16c-0.79,0-1.64,0.03-2.51,0.09
		c-2.29-6.34-8.3-10.57-15.04-10.57h-5.8c-0.22-0.02-0.43-0.05-0.65-0.05h-6c-2.1,0-4.14,0.69-5.81,1.96l-90,68.41
		c-1.29,0.98-2.3,2.26-2.95,3.71c-1.31,0.39-2.53,1.06-3.57,1.98l-36,31.58c-1.05,0.92-1.87,2.04-2.43,3.28
		c-1.31,0.39-2.53,1.06-3.57,1.98l-4.51,3.96l-20.86-27.45c-2.12-40.31-27.42-71.65-75.29-93.21c-3.17-1.43-6.71-1.72-10.08-0.96
		c-1.82-0.59-3.78-0.65-5.64-0.11l-24.68,7.22c-2.46-1.47-5.27-2.29-8.17-2.29h-5.89c-0.19-0.01-0.37-0.05-0.56-0.05h-6
		c-1.52,0-2.98,0.37-4.29,1.03c-1.21-20.01-5.26-44.01-14.02-72.94c-0.21-0.62-21.3-62.56-101.3-64.75
		c-2.89,0.01-71.03,0.85-104.23,51.42c-32.53,49.54-34.42,93.03-34.49,94.86c-0.02,0.53,0.07,1.04,0.22,1.53
		c-0.92,2.26-1.36,4.69-1.43,7.17c-0.29,0.62-0.46,1.31-0.45,2.04c0.26,40.32-5.98,106.66-23.8,113.02c-2.26,0.8-3.57,3.16-3.08,5.5
		c0.21,0.99,1.61,6.15,8.7,9.84c3.53,1.84,7.81,2.98,12.82,3.45c-1.25,0.71-2.24,1.79-2.79,3.14c-0.65,1.61-0.62,3.41,0.08,5
		l26.33,59.31l-16.6,2.91c-3.48,0.61-5.81,3.93-5.2,7.41c0.54,3.11,3.24,5.29,6.3,5.29c0.37,0,0.74-0.03,1.11-0.1l19.73-3.45
		c-14.35,26.43-28.85,49.5-40.81,61.11c-2.18,2.12-2.98,6.17,0.05,8.12c15.51,9.96,31.77,17.34,48.51,22.74l28.18,4.4l30.86,49.85
		l-22.5,100.56c-0.44,1.95,0.07,4,1.36,5.53c1.22,1.44,3.01,2.27,4.89,2.27c0.11,0,0.22,0,0.33-0.01l49.97-2.63
		c3.53-0.19,6.24-3.2,6.05-6.73c-0.18-3.41-3-6.06-6.38-6.06c-0.11,0-0.23,0.01-0.34,0.01l-5.66,0.3l23.28-26.55
		c1.86-2.12,2.11-5.2,0.63-7.59l-38.07-61.32l8.87-39.72c28.38,0.36,57.09-2.5,85.25-6.92c2.92-0.46,4.54-2.93,4.38-5.76
		c-1.09-19.23-8.62-35.34-16.52-52.7c-10.86-23.87-14.15-51.09-19.87-76.53c-2.81-12.5-5.32-26.77-8.52-41.01
		c0.06,0,0.11,0,0.17-0.01l122.82-10.94c3.48-0.31,6.07-3.36,5.81-6.85l-1.28-17.07c10.48,23.72,25.29,51.54,44.66,83.92
		C521.61,665.48,498.74,710.4,495.73,728.44c-0.76,3.01-1.04,5.4-1.04,7.37c0,1.24,0.26,2.46,0.72,3.61
		c0.04,2.87,0.84,5.68,2.34,8.13c18.35,29.93,36.55,44.47,55.64,44.47c2.21,0,4.4-0.46,6.42-1.35l6.88-3.01v6.04
		c0,1.27,0.26,2.48,0.71,3.6c0.12,8.73,7.23,15.78,15.99,15.78h12c5.92,0,11.37-3.28,14.14-8.52
		c36.11-68.23,71.6-122.71,105.68-162.26l69.75,145.89c1.93,4.04,5.46,7.08,9.74,8.39c4.28,1.31,8.91,0.78,12.77-1.48l0.96-0.56
		c2.56,1.73,5.64,2.75,8.97,2.75h18c4.81,0,9.37-2.17,12.41-5.9l30-36.84c3.9-4.79,4.69-11.39,2.04-16.97
		c-0.13-0.28-0.27-0.55-0.41-0.81l0.92-2.42C881.74,730.7,881.74,726.67,880.37,723.02 M349.12,232.69
		c30.34-46.2,95.6-47.08,96.1-47.09c72.88,1.99,91.53,55.84,92.26,58.03c19.04,62.88,15.33,101.53,8.31,125.12
		c0.05-2.36-0.34-4.72-1.23-6.99c-2.25-5.69-7.64-8.35-13.29-9.31c5.72-12.74,9.04-26.81,9.28-41.76c4.42,0.08,5.21-6.27,1.41-8.32
		c-0.55-0.3-1.12-0.53-1.67-0.82c-0.26-3.95-0.68-7.93-1.39-11.97c-2.12-12.23-6.15-22.59-11.71-31.55c0.06,0.01,0.12,0,0.18,0
		l-1.59-2.76c0,0.19-0.02,0.36-0.02,0.55c-11.48-17.22-28.87-29.01-49.71-38.45c-3.71-1.67-49.41-20.35-49.54-6.06
		c-10.28-3.97-20.49-3.01-30.09,1.55l-20.52,14.82c0.36,0.05,0.73,0.05,1.09,0c-18.64,20.06-32.38,53.42-35.28,86.56
		c-7.59-2.36-17.03-3.28-24.55-0.29C319.34,299.15,326.44,267.22,349.12,232.69 M548.35,430.55c-21.4,11.29-76-2.07-100.5-9.83
		c-0.8-1.61-1.64-3.2-2.51-4.74c23.51-3.24,44.95-13.73,61.5-29.34c10.94,6.95,26.27,5.6,34.42-5.3c-1.9,4.49-3.76,8.16-5.27,11.13
		c-0.9,1.76-1.66,3.27-2.24,4.56C527.97,409.82,540.71,423.72,548.35,430.55 M435.69,240.47c-8.11,24.93-54.02,33.26-77.74,35.71
		c12.01-37.02,37.64-65.72,72.62-56.47C429.71,226.26,432.04,233.46,435.69,240.47 M442.99,252.26c4.46,6.3,9.2,11.97,12.59,16.22
		c17.08,21.43,47.7,33.75,74.79,40.17c0.2,7-0.18,13.82-1.12,20.09c-2.83,18.92-12.31,35.32-25.62,48.19
		c-0.04-0.02-0.09-0.05-0.13-0.07c-1.89-1.6-5.15,1.09-3.52,3.45c-33.56,29.32-87.86,37.6-124.48,10.36
		c-25.95-19.31-30.66-67.57-19.43-108.19C369.64,283.87,426.9,270.68,442.99,252.26 M442.93,233.18c-0.44-0.48-1.01-0.79-1.6-0.98
		c-2.3-5.66-3.51-11.27-2.9-16.48c11.23,4.33,55,21.54,59.81,24.44c18.9,11.37,28.35,33.97,31.22,56.55
		c-15.94-6.2-32.92-9.79-47.99-18.88c-9.5-5.74-24.65-19.45-34.25-34.41C447.45,240.1,446.16,236.67,442.93,233.18 M536.66,365.88
		c1.47,3.44-0.32,7.76-2.26,10.61c-2.78,4.05-7.14,6.49-11.96,7.09c-3.84,0.47-7.23-0.56-10.47-2.09
		c5.78-6.24,10.85-13.14,15.04-20.6C530.92,361.09,534.97,361.94,536.66,365.88 M316.86,325.03c2.36-2.32,4.88-2.97,8.57-3.35
		c5.31-0.54,10.59,0.8,15.79,1.69c-0.15,6.04,0.05,12.02,0.7,17.88c-0.52,0.97-1.04,1.93-1.63,2.86c-0.93,1.48-2.52,0.42-3.76,1.54
		c-1.19,1.08-2.75,2.37-3.95,3.03c-1.57,0.86-2.33,1.14-3.53,1.31c-0.25,0.03-0.51,0.06-0.76,0.08c-0.09,0.01-0.06,0.01-0.13,0.01
		c-0.05-0.01-0.05-0.02-0.24-0.03c-0.28-0.02-1.39-0.25-1.62-0.26c-5.11-1.56-8.38-6.12-10.4-11.37c-0.86-2.26-1.44-5.51-1.29-7.56
		C314.79,328.26,315.78,326.1,316.86,325.03 M291.95,453.23c-0.89-0.4-1.61-0.83-2.2-1.24c18.65-15.13,23.31-69.38,24.44-99.52
		c2.11,2.05,4.52,3.72,7.13,4.77c3.71,1.49,7.63,1.49,11.39,0.23c3.28-1.1,9.57-5.69,9.03-9.7c-0.21-1.6-0.45-1.91,0.34-3.4
		c0.07-0.12,0.11-0.25,0.18-0.38c3.9,29.27,18.52,54.87,48.56,66.22c-1.63,4.35-5.02,12.72-9.68,23.67
		c-1.51-0.65-3.26-0.71-4.91-0.05l-41.42,16.71C309.38,457.57,297.38,455.68,291.95,453.23 M311.26,473.83l63.73-25.71
		c-10.28,23.44-24.2,53.65-38.82,81.82L311.26,473.83z M380.92,643.28l24.27,3.79c-0.16,0.37-0.3,0.76-0.39,1.18l-5.51,24.62
		L380.92,643.28z M433.59,752.38l-28.38,32.36l-18.05,0.95l17.77-79.6L433.59,752.38z M492.56,612.74
		c10.11,25.04-6.24,21.31-25.05,23.48c-19.96,2.32-40.05,2.99-60.12,2.45c-38.28-1.03-75.56-10.6-108.36-30.29
		c52.71-54.32,77.32-124.34,97.61-196.21c0.02,0.01,0.05,0.02,0.07,0.02c12.94,3.84,25.82,5.33,38.25,4.78
		c0.08,0.78,0.28,1.57,0.77,2.36c14.23,23.08,18.73,62.49,25.14,88.75C469.88,544.99,478.35,577.55,492.56,612.74 M578.04,442.56
		l-116.53,10.38c-0.71,0.06-1.37,0.27-1.99,0.54c-2-7.63-4.27-15.11-7.01-22.15c14.07,4.51,44.02,13.16,71.06,13.16
		c14.96,0,28.24-2.7,35.97-10.29c1-0.98,1.52-2.35,1.42-3.75c-0.09-1.4-0.8-2.69-1.92-3.52c-6.9-5.14-20.02-18.24-16.55-25.95
		c0.53-1.17,1.23-2.55,2.05-4.15c4.91-9.65,13.28-26.23,15.79-53.83l13.39,29.37c-0.2,0.71-0.31,1.44-0.34,2.18
		c-0.67,1.77-0.87,3.7-0.43,5.59c0.15,0.65,0.34,1.34,0.51,2c0.04,0.95,0.14,1.9,0.36,2.84c1.34,5.74,3.13,11.89,5.35,18.44
		c-2.29,1.11-3.8,3.51-3.6,6.2L578.04,442.56z"/>
<path style="clip-path:url(#SVGID_00000116202746906317711520000007189711632881399452_);fill:#00CFDA;" d="M610.79,316.99
		c43.99,19.81,66,47.88,66,84.2l36,47.36l18-15.79h6l-24,31.58l6,5.26h6c89.41-91.22,147.41-136.83,174-136.83
		c14.59,0,26.59,8.77,36,26.32c12,0,18,3.51,18,10.53c0,13.21-34,43.03-102,89.46l-84,78.94v10.53c36,52.01,66,109.9,90,173.67
		l-6,15.79h6l-30,36.84h-18v-10.53l-18,10.53l-78-163.14h-6c-38.83,41.48-78.83,101.12-120,178.93h-12V780.1l6-5.26l-6-5.26v-5.27
		c20-42.72,56-100.61,108-173.67h6v-15.79c-80,97-120,158.39-120,184.19l-24,10.53c-12.95,0-26.94-12.28-42-36.84
		c0-19.81,48-93.49,144-221.03c-36.71-60.05-58.71-105.66-66-136.83h6l-24-52.62h6l6,5.26L610.79,316.99z M514.79,732.73l132-184.19
		c7.99,0,12-7.01,12-21.05h-6C581.97,608.8,535.97,677.22,514.79,732.73 M772.79,395.93h6l-42,36.84v-5.26L772.79,395.93z
		 M784.8,474.87l-12,15.79h6l12-15.79H784.8z M868.79,322.25h6l-90,73.67h-6v-5.26L868.79,322.25z M790.8,732.73V738l6,21.05h6V738
		l-6-5.26H790.8z"/>
</g>
</svg>
